<?xml version="1.0" standalone="no"?>
<!DOCTYPE svg PUBLIC "-//W3C//DTD SVG 20010904//EN"
 "http://www.w3.org/TR/2001/REC-SVG-20010904/DTD/svg10.dtd">
<svg version="1.0" xmlns="http://www.w3.org/2000/svg"
 width="638.000000pt" height="111.000000pt" viewBox="0 0 638.000000 111.000000"
 preserveAspectRatio="xMidYMid meet">

<g transform="translate(0.000000,111.000000) scale(0.100000,-0.100000)"
fill="#000000" stroke="none">
<path d="M850 829 c-410 -115 -757 -212 -772 -217 -23 -6 0 -16 141 -60 l168
-53 584 257 c321 140 598 262 614 269 17 7 26 13 20 14 -5 0 -345 -94 -755
-210z"/>
<path d="M1234 747 c-225 -161 -434 -309 -463 -331 l-54 -38 179 -78 c135 -59
182 -75 191 -67 6 7 134 185 283 397 150 212 277 391 283 398 5 6 6 12 1 11
-5 0 -194 -132 -420 -292z"/>
<path d="M1915 793 c-21 -109 -40 -206 -43 -215 -4 -15 3 -18 36 -18 40 0 40
0 51 50 6 27 14 68 17 90 l7 40 97 0 c103 0 110 3 110 51 0 17 -8 19 -95 19
-52 0 -95 2 -95 5 0 2 5 27 11 55 l11 50 103 0 c98 0 103 1 109 23 13 47 14
47 -137 47 l-143 0 -39 -197z"/>
<path d="M2310 987 c0 -2 -18 -93 -40 -202 -22 -109 -40 -205 -40 -212 0 -10
32 -13 149 -13 146 0 149 0 155 23 12 47 12 47 -104 47 -60 0 -110 2 -110 5 0
2 5 27 11 55 l11 50 103 0 c98 0 103 1 109 23 12 46 11 47 -95 47 l-101 0 7
48 c4 26 9 50 12 55 2 4 53 7 114 7 80 0 109 3 109 13 0 6 3 22 6 35 l6 22
-151 0 c-83 0 -151 -1 -151 -3z"/>
<path d="M2685 968 c-3 -13 -23 -110 -44 -215 l-38 -193 41 0 42 0 35 178 35
177 74 0 75 0 3 -32 c4 -38 -29 -75 -79 -89 -58 -17 -59 -33 -6 -139 l47 -95
45 0 c25 0 45 3 45 7 0 3 -20 44 -45 90 -50 92 -50 93 -32 93 22 0 81 49 99
83 26 48 23 103 -7 132 -23 24 -29 25 -154 25 -127 0 -131 -1 -136 -22z"/>
<path d="M3090 987 c0 -2 -18 -93 -40 -202 -22 -109 -40 -205 -40 -212 0 -8
13 -13 39 -13 l38 0 32 163 c18 89 34 170 37 180 4 14 17 17 73 17 83 0 100
-13 81 -61 -14 -33 -62 -69 -92 -69 -10 0 -22 -9 -28 -20 -8 -15 -1 -37 37
-115 l48 -95 47 0 48 0 -37 68 c-20 37 -42 78 -50 90 -8 13 -13 24 -11 25 96
48 120 76 126 150 4 49 2 56 -23 75 -25 20 -40 22 -156 22 -71 0 -129 -1 -129
-3z"/>
<path d="M3465 971 c3 -12 28 -76 54 -143 l48 -121 -13 -61 c-19 -87 -19 -86
25 -86 l39 0 13 71 c12 66 19 80 94 178 44 58 94 123 109 144 l28 37 -44 0
-44 0 -74 -100 c-41 -55 -77 -100 -80 -100 -3 0 -21 44 -41 98 l-37 97 -42 3
c-38 3 -41 2 -35 -17z"/>
<path d="M4062 807 c-62 -100 -122 -197 -133 -214 l-21 -33 40 0 39 0 83 138
c46 75 95 155 109 177 l25 40 18 -75 c24 -103 25 -100 -27 -100 -39 0 -46 -3
-60 -30 l-16 -30 69 0 69 0 12 -60 12 -60 40 0 c34 0 40 3 35 18 -3 9 -23 98
-46 197 -23 99 -44 188 -46 198 -4 13 -16 17 -47 17 l-42 -1 -113 -182z"/>
<path d="M4505 978 c-2 -7 -20 -96 -40 -198 -20 -102 -39 -193 -41 -202 -5
-16 5 -18 107 -18 61 0 129 5 150 11 83 25 147 109 167 220 19 103 -12 165
-96 188 -55 16 -242 14 -247 -1z m243 -78 c30 -28 37 -64 23 -123 -15 -66 -45
-113 -84 -134 -29 -15 -177 -32 -177 -21 0 6 47 243 55 276 5 20 11 22 83 22
65 0 82 -4 100 -20z"/>
<path d="M4924 973 c2 -10 24 -107 47 -215 l43 -198 42 0 42 0 123 193 c67
105 129 202 137 215 14 22 14 22 -31 22 l-45 0 -99 -165 c-54 -90 -101 -164
-104 -165 -4 0 -21 74 -39 165 l-33 165 -44 0 c-37 0 -44 -3 -39 -17z"/>
<path d="M5425 978 c-2 -7 -20 -96 -40 -198 -20 -102 -39 -193 -41 -202 -4
-15 1 -18 33 -18 l39 0 39 198 c21 108 40 205 43 215 4 14 -2 17 -32 17 -20 0
-38 -6 -41 -12z"/>
<path d="M5720 981 c-101 -33 -156 -98 -179 -212 -29 -138 37 -211 188 -211
94 1 126 12 135 47 9 35 7 37 -35 25 -94 -27 -186 0 -206 60 -24 76 18 184 85
216 40 19 123 24 183 11 35 -7 37 -6 41 23 3 17 0 34 -6 37 -16 11 -178 13
-206 4z"/>
<path d="M5981 783 c-22 -115 -41 -211 -41 -215 0 -5 67 -8 149 -8 l149 0 4
30 5 30 -110 0 -110 0 7 52 c4 28 9 55 12 60 3 4 52 8 110 8 76 0 104 3 104
13 0 6 3 22 6 35 6 22 5 22 -101 22 -87 0 -106 3 -102 14 3 7 9 34 12 60 l7
46 49 0 c36 0 49 4 49 14 0 8 3 21 6 30 5 14 -5 16 -78 16 l-85 0 -42 -207z"/>
</g>
</svg>
